<svg width="21" height="30" viewBox="0 0 21 30" fill="none" xmlns="http://www.w3.org/2000/svg">
<g clip-path="url(#clip0_2_129)">
<path d="M10.5 4.6875C7.34165 4.6875 4.77273 7.21055 4.77273 10.3125C4.77273 10.8305 5.19989 11.25 5.72727 11.25C6.25466 11.25 6.68182 10.8305 6.68182 10.3125C6.68182 8.24414 8.39523 6.5625 10.5 6.5625C11.0274 6.5625 11.4545 6.14297 11.4545 5.625C11.4545 5.10703 11.0274 4.6875 10.5 4.6875ZM5.73085 26.9045C5.73085 27.0891 5.78633 27.2689 5.89074 27.4225L7.35298 29.5811C7.53017 29.8424 7.82847 29.9994 8.14764 29.9994H12.8518C13.1715 29.9994 13.4698 29.8424 13.6464 29.5811L15.1087 27.4225C15.2125 27.2689 15.268 27.0885 15.2686 26.9045L15.2715 24.3744H5.72847L5.73085 26.9045ZM10.5 0C4.39807 0 0 4.86152 0 10.3125C0 12.9123 0.981392 15.2842 2.59875 17.0965C3.59148 18.2092 5.14858 20.5418 5.72608 22.4965V22.5H8.58972V22.493C8.58912 22.2135 8.54676 21.9357 8.46145 21.6686C8.12795 20.625 7.10003 17.8734 4.75244 15.2426C3.52705 13.8697 2.87199 12.1283 2.86662 10.3125C2.85469 5.99766 6.42648 2.8125 10.5 2.8125C14.7107 2.8125 18.1364 6.17695 18.1364 10.3125C18.1364 12.1271 17.4658 13.8779 16.2482 15.2426C13.9149 17.8564 12.8822 20.6021 12.5433 21.6562C12.4559 21.9273 12.4112 22.2098 12.4109 22.4941V22.5H15.2745V22.4971C15.852 20.5418 17.4091 18.2092 18.4018 17.0971C20.0186 15.2842 21 12.9123 21 10.3125C21 4.61719 16.2989 0 10.5 0Z" fill="black"/>
</g>
<defs>
<clipPath id="clip0_2_129">
<rect width="21" height="30" fill="white"/>
</clipPath>
</defs>
</svg>
