<svg width="30" height="30" viewBox="0 0 30 30" fill="none" xmlns="http://www.w3.org/2000/svg">
<g clip-path="url(#clip0_2_21)">
<path d="M3.61523 9.92578L9.5625 26.2148C5.40234 24.1992 2.53711 19.9336 2.53711 15C2.53711 13.1895 2.92383 11.4785 3.61523 9.92578V9.92578ZM23.4141 14.373C23.4141 12.832 22.8633 11.7656 22.3887 10.9336C21.7559 9.9082 21.1641 9.03516 21.1641 8.00977C21.1641 6.86133 22.0312 5.79492 23.2559 5.79492C23.3086 5.79492 23.3613 5.80078 23.4199 5.80664C21.1992 3.77344 18.2461 2.53125 15 2.53125C10.6465 2.53125 6.81445 4.76367 4.58203 8.15039C4.875 8.16211 5.15039 8.16797 5.38477 8.16797C6.68555 8.16797 8.70703 8.00977 8.70703 8.00977C9.38086 7.96875 9.45703 8.95898 8.78906 9.03516C8.78906 9.03516 8.11523 9.11133 7.36523 9.15234L11.9062 22.6523L14.6367 14.4727L12.6973 9.15234C12.0234 9.11133 11.3906 9.03516 11.3906 9.03516C10.7168 8.99414 10.7988 7.96875 11.4668 8.00977C11.4668 8.00977 13.5234 8.16797 14.748 8.16797C16.0488 8.16797 18.0703 8.00977 18.0703 8.00977C18.7441 7.96875 18.8203 8.95898 18.1523 9.03516C18.1523 9.03516 17.4785 9.11133 16.7285 9.15234L21.2344 22.5527L22.4766 18.3984C23.0039 16.6758 23.4141 15.4395 23.4141 14.373ZM15.2168 16.0898L11.4785 26.959C12.5977 27.2871 13.7754 27.4687 15 27.4687C16.4531 27.4687 17.8418 27.2168 19.1367 26.7598C19.1016 26.707 19.0723 26.6484 19.0488 26.5898L15.2168 16.0898ZM25.9395 9.01758C25.9922 9.41602 26.0215 9.83789 26.0215 10.3008C26.0215 11.5664 25.7871 12.9844 25.0723 14.7656L21.2637 25.7754C24.9727 23.6133 27.4629 19.5996 27.4629 15C27.4629 12.832 26.9121 10.793 25.9395 9.01758V9.01758ZM29.5312 15C29.5312 23.0156 23.0098 29.5312 15 29.5312C6.98437 29.5312 0.46875 23.0098 0.46875 15C0.46875 6.98437 6.98437 0.46875 15 0.46875C23.0098 0.46875 29.5312 6.98437 29.5312 15ZM28.8633 15C28.8633 7.35352 22.6406 1.13672 15 1.13672C7.35352 1.13672 1.13672 7.35352 1.13672 15C1.13672 22.6465 7.35938 28.8633 15 28.8633C22.6465 28.8633 28.8633 22.6465 28.8633 15Z" fill="black"/>
</g>
<defs>
<clipPath id="clip0_2_21">
<rect width="30" height="30" fill="white"/>
</clipPath>
</defs>
</svg>
